<svg width="22" height="22" viewBox="0 0 22 22" fill="none" xmlns="http://www.w3.org/2000/svg">
<g clip-path="url(#clip0_793_2364)">
<path fill-rule="evenodd" clip-rule="evenodd" d="M11 0C10.8177 0 10.6428 0.0724328 10.5139 0.201364C10.3849 0.330295 10.3125 0.505164 10.3125 0.6875V1.39425C4.64062 1.70225 0 5.8025 0 11C0 11 0 11.6875 0.6875 11.6875C0.892375 11.6875 1.1715 11.4881 1.1715 11.4881L1.177 11.4826L1.21137 11.451C1.44754 11.2461 1.70313 11.0646 1.9745 10.9093C2.6274 10.5271 3.36853 10.3214 4.125 10.3125C5.00225 10.3125 5.74475 10.6054 6.2755 10.9093C6.54687 11.0646 6.80246 11.2461 7.03863 11.451L7.073 11.4826L7.07713 11.4868C7.07713 11.4868 7.35762 11.6875 7.5625 11.6875C7.76738 11.6875 8.0465 11.4881 8.0465 11.4881L8.052 11.4826L8.08637 11.451C8.32254 11.2461 8.57813 11.0646 8.8495 10.9093C9.3026 10.6475 9.79756 10.4661 10.3125 10.373V18.5625V18.6161L10.3194 18.7302C10.3577 19.2569 10.4968 19.7713 10.7291 20.2455C10.9671 20.7336 11.3288 21.1508 11.7782 21.4555C12.2925 21.7951 12.9429 22 13.75 22C14.5571 22 15.2089 21.7965 15.7218 21.4555C16.1712 21.1508 16.5329 20.7336 16.7709 20.2455C17.0197 19.7366 17.161 19.182 17.1861 18.6161V18.5817L17.1875 18.5694V18.5652C17.1875 18.5652 17.1875 18.5625 16.5 18.5625H17.1875V17.875C17.1875 17.6927 17.1151 17.5178 16.9861 17.3889C16.8572 17.2599 16.6823 17.1875 16.5 17.1875C16.3177 17.1875 16.1428 17.2599 16.0139 17.3889C15.8849 17.5178 15.8125 17.6927 15.8125 17.875V18.5707L15.8084 18.6313C15.7829 18.978 15.6919 19.3167 15.5403 19.6295C15.4096 19.8921 15.224 20.1341 14.9586 20.3101C14.6974 20.4847 14.3179 20.625 13.75 20.625C13.1821 20.625 12.8026 20.4847 12.5414 20.3101C12.276 20.1341 12.0904 19.8921 11.9584 19.6295C11.7982 19.2983 11.7061 18.9382 11.6875 18.5707V10.373C12.2024 10.4661 12.6974 10.6475 13.1505 10.9093C13.4352 11.0727 13.7024 11.2648 13.948 11.4826L13.9535 11.4881C13.9535 11.4881 14.2312 11.6875 14.4375 11.6875C14.6438 11.6875 14.9215 11.4881 14.9215 11.4881L14.927 11.4826C15.1726 11.2648 15.4398 11.0727 15.7245 10.9093C16.3774 10.5271 17.1185 10.3214 17.875 10.3125C18.7523 10.3125 19.4934 10.6054 20.0255 10.9093C20.3102 11.0727 20.5774 11.2648 20.823 11.4826L20.8285 11.4881C20.8285 11.4881 21.1062 11.6875 21.3125 11.6875C22 11.6875 22 11 22 11C22 5.8025 17.3594 1.70225 11.6875 1.39425V0.6875C11.6875 0.505164 11.6151 0.330295 11.4861 0.201364C11.3572 0.0724328 11.1823 0 11 0Z" fill="#164F6D"/>
</g>
<defs>
<clipPath id="clip0_793_2364">
<rect width="22" height="22" fill="white" transform="matrix(-1 0 0 1 22 0)"/>
</clipPath>
</defs>
</svg>
