<svg width="30" height="45" viewBox="0 0 30 45" fill="none" xmlns="http://www.w3.org/2000/svg">
<path d="M18.4192 10.0461C19.7514 10.0461 21.029 9.51692 21.971 8.57492C22.913 7.63291 23.4422 6.35527 23.4422 5.02307C23.4422 3.69087 22.913 2.41323 21.971 1.47122C21.029 0.529215 19.7514 0 18.4192 0C17.087 0 15.8093 0.529215 14.8673 1.47122C13.9253 2.41323 13.3961 3.69087 13.3961 5.02307C13.3961 6.35527 13.9253 7.63291 14.8673 8.57492C15.8093 9.51692 17.087 10.0461 18.4192 10.0461ZM21.4678 25.4055C20.0763 24.6797 17.9352 25.1931 17.5777 26.7212V26.7212C17.4294 27.3551 17.6247 28.0202 18.0922 28.4732L21.655 31.926C22.6621 32.902 23.3949 34.1255 23.78 35.474L25.5876 41.8031C25.7505 42.3724 25.6805 42.9831 25.3931 43.5007C25.1056 44.0184 24.6243 44.4007 24.055 44.5636C23.4858 44.7264 22.8751 44.6564 22.3574 44.369C21.8397 44.0816 21.4574 43.6003 21.2946 43.031L19.815 37.8493C19.43 36.5009 18.6973 35.2773 17.6903 34.3013L8.85077 25.7337C8.54771 25.5103 8.3061 25.2138 8.1484 24.8719C7.99071 24.5299 7.92207 24.1537 7.94885 23.7781V23.7781C8.09064 21.7988 5.94725 21.0258 5.18548 22.8581C4.88453 23.582 4.61262 24.3531 4.37912 25.1712C4.2163 25.7405 3.83399 26.2217 3.31631 26.5092C2.79862 26.7966 2.18796 26.8666 1.61867 26.7038C1.04938 26.5409 0.56808 26.1586 0.280663 25.6409C-0.00675449 25.1233 -0.07675 24.5126 0.0860746 23.9433C1.30501 19.677 3.41693 16.3707 5.60252 14.1048C6.57877 13.0731 7.69111 12.1793 8.90882 11.4481C9.94022 10.8521 11.1257 10.381 12.2799 10.381V10.381C12.5035 10.381 12.7274 10.3989 12.9506 10.4129C12.9873 10.4151 13.0242 10.4179 13.0612 10.4212C14.2722 10.5292 15.4351 10.9465 16.4386 11.6329C17.3696 12.2698 18.1344 13.1187 18.671 14.1081C18.7544 14.2619 18.8476 14.4105 18.9304 14.5647V14.5647L21.6763 19.619C21.9885 20.1941 22.4233 20.6936 22.9499 21.0821C23.4765 21.4706 24.082 21.7386 24.7237 21.8671L27.2285 22.3694C27.5242 22.418 27.807 22.5257 28.0602 22.6859C28.3134 22.8462 28.5317 23.0557 28.7022 23.3022C28.8727 23.5486 28.9918 23.8268 29.0525 24.1202C29.1132 24.4137 29.1142 24.7163 29.0554 25.0101C28.9966 25.3039 28.8793 25.5829 28.7104 25.8304C28.5416 26.078 28.3246 26.289 28.0725 26.4509C27.8203 26.6128 27.5382 26.7222 27.2428 26.7728C26.9475 26.8233 26.645 26.8139 26.3534 26.7451L23.8485 26.245C23.0126 26.0777 22.2118 25.7935 21.4678 25.4055Z" fill="#E4697C"/>
<path d="M4.86809 37.4585C5.55121 36.912 6.06184 36.1798 6.33854 35.35L7.49423 31.8838C8.01358 30.3262 9.97986 29.8429 11.1622 30.9822V30.9822C11.782 31.5795 12.0033 32.4799 11.731 33.2966L10.1519 38.0322C9.87997 38.8493 9.37757 39.5704 8.70523 40.1084L3.63751 44.1604C3.40877 44.3456 3.14566 44.4838 2.86331 44.567C2.58097 44.6502 2.28496 44.6767 1.99233 44.645C1.69969 44.6134 1.41621 44.5241 1.15819 44.3825C0.900164 44.2409 0.672699 44.0496 0.488878 43.8197C0.305058 43.5898 0.168512 43.3259 0.0870981 43.043C0.00568388 42.7601 -0.0189915 42.464 0.014492 42.1715C0.0479756 41.8791 0.138957 41.5962 0.2822 41.3391C0.425444 41.0819 0.618123 40.8557 0.849148 40.6733L4.86809 37.4585Z" fill="#E4697C"/>
</svg>
