<svg width="66" height="70" viewBox="0 0 66 70" fill="none" xmlns="http://www.w3.org/2000/svg">
<g clip-path="url(#clip0_403_2937)">
<path fill-rule="evenodd" clip-rule="evenodd" d="M20.6246 2.39156C17.3056 15.5995 12.2795 54.6198 64.1519 53.6681C65.5564 53.6423 66.4078 55.1827 65.5932 56.3213C62.0473 61.2732 52.4014 70.8097 31.4546 69.0545C31.4546 69.0545 1.35881 65.3572 0.0601625 31.667C0.0601625 31.667 -1.14989 12.0354 17.9084 0.404348C19.2978 -0.442097 21.02 0.821126 20.6246 2.39156Z" fill="#ADC1E3"/>
<path fill-rule="evenodd" clip-rule="evenodd" d="M42.3986 16.8381C44.0732 16.8381 44.7819 22.1273 45.6203 22.9115C46.4587 23.6956 51.8478 22.4066 52.4269 24.0823C53.006 25.7559 48.1398 27.988 47.6104 29.0042C47.081 30.0203 50.0738 34.7961 48.5958 35.8015C47.1178 36.8069 43.5503 32.7702 42.3986 32.7702C41.2468 32.7702 37.6167 36.9143 36.2014 35.8015C34.786 34.6887 37.7139 30.0203 37.1845 29.0042C36.6573 27.988 31.7825 25.7365 32.3702 24.0823C32.958 22.426 38.3384 23.6956 39.1768 22.9115C40.0152 22.1273 40.7239 16.8381 42.3986 16.8381Z" fill="#F9C900"/>
<path fill-rule="evenodd" clip-rule="evenodd" d="M52.4747 1.67114C53.581 1.67114 54.0477 5.16219 54.6009 5.67994C55.1541 6.19769 58.7086 5.3448 59.0911 6.45119C59.4735 7.55544 56.2647 9.0292 55.9147 9.69948C55.5646 10.3698 57.5396 13.5214 56.5651 14.1852C55.5884 14.849 53.2353 12.1851 52.4747 12.1851C51.7141 12.1851 49.3199 14.9199 48.3842 14.1852C47.4508 13.4505 49.3847 10.3698 49.0347 9.69948C48.6846 9.0292 45.4693 7.54255 45.8583 6.45119C46.245 5.35984 49.7953 6.19769 50.3484 5.67994C50.9016 5.16219 51.3705 1.67114 52.4747 1.67114Z" fill="#F9C900"/>
</g>
<defs>
<clipPath id="clip0_403_2937">
<rect width="66" height="70" fill="white"/>
</clipPath>
</defs>
</svg>
