<svg width="90" height="76" viewBox="0 0 90 76" fill="none" xmlns="http://www.w3.org/2000/svg">
<g clip-path="url(#clip0_403_2999)">
<path fill-rule="evenodd" clip-rule="evenodd" d="M21.5277 2.39257C18.0971 16.2232 12.9021 57.083 66.5186 56.0864C67.9704 56.0594 68.8504 57.6724 68.0084 58.8647C64.3432 64.05 54.3731 74.0361 32.7219 72.1981C32.7219 72.1981 1.61417 68.3265 0.271861 33.0481C0.271861 33.0481 -0.978878 12.4911 18.7203 0.31168C20.1564 -0.574668 21.9365 0.748105 21.5277 2.39257Z" fill="#ADC1E3"/>
<path fill-rule="evenodd" clip-rule="evenodd" d="M28.0522 57.4456C28.3917 60.3094 26.3614 62.9054 23.5182 63.2474C20.675 63.5893 18.0976 61.5444 17.7581 58.6806C17.4187 55.8169 19.4489 53.2208 22.2921 52.8789C25.1353 52.5369 27.7127 54.5818 28.0522 57.4456Z" fill="#8AA1C4"/>
<path fill-rule="evenodd" clip-rule="evenodd" d="M38.2883 57.0894C38.5698 59.4785 36.8768 61.6448 34.5071 61.9283C32.1351 62.214 29.9843 60.5088 29.7029 58.1197C29.4193 55.7328 31.1122 53.5642 33.4842 53.2808C35.8539 52.9951 38.0047 54.7003 38.2883 57.0894Z" fill="#8AA1C4"/>
<path fill-rule="evenodd" clip-rule="evenodd" d="M55.298 61.5734C55.5102 63.3731 54.2349 65.0063 52.4481 65.2222C50.6613 65.436 49.0398 64.1492 48.8254 62.3495C48.6133 60.5498 49.8886 58.9166 51.6753 58.7029C53.4643 58.4869 55.0858 59.7737 55.298 61.5734Z" fill="#8AA1C4"/>
<path fill-rule="evenodd" clip-rule="evenodd" d="M17.3727 48.7845C10.268 48.7845 4.4856 54.6649 4.4856 61.8952C4.4856 69.121 10.268 75.0037 17.3727 75.0037H73.4036C82.3241 75.0037 89.5783 67.6205 89.5783 58.5455C89.5783 49.4706 82.3241 42.0873 73.4036 42.0873C71.7441 42.0873 70.0936 42.3483 68.5034 42.859L67.4671 43.1942L67.1008 42.1503C63.6769 32.3555 54.5241 25.7754 44.3284 25.7754C31.8634 25.7754 21.518 35.2778 20.2628 47.8779L20.1466 49.0454L19.0031 48.9014C18.3688 48.8204 17.8506 48.7845 17.3727 48.7845Z" fill="#D6E3F2"/>
</g>
<defs>
<clipPath id="clip0_403_2999">
<rect width="90" height="75.4545" fill="white"/>
</clipPath>
</defs>
</svg>
