<svg width="31" height="31" viewBox="0 0 31 31" fill="none" xmlns="http://www.w3.org/2000/svg">
<path d="M10.8495 5.20348C10.6652 5.20377 10.4851 5.1493 10.3318 5.04699C10.1786 4.94468 10.0593 4.79914 9.98894 4.62886L8.605 1.28823C8.5104 1.06 8.51033 0.803537 8.60482 0.575262C8.69931 0.346987 8.88061 0.165598 9.10884 0.0709969C9.22185 0.0241552 9.34297 3.01598e-05 9.46531 2.82603e-08C9.58764 -3.01032e-05 9.70878 0.024035 9.82181 0.0708211C10.0501 0.16531 10.2315 0.346611 10.3261 0.574839L11.71 3.91547C11.7687 4.05699 11.7915 4.2108 11.7766 4.36327C11.7616 4.51574 11.7092 4.66215 11.6241 4.78954C11.539 4.91693 11.4238 5.02135 11.2886 5.09355C11.1535 5.16576 11.0027 5.20352 10.8495 5.20348ZM21.5345 31C21.3502 31.0003 21.1701 30.9458 21.0168 30.8435C20.8636 30.7412 20.7443 30.5957 20.6739 30.4254L19.29 27.0847C19.1954 26.8565 19.1953 26.6001 19.2898 26.3718C19.3843 26.1435 19.5656 25.9621 19.7938 25.8675C20.0221 25.7729 20.2785 25.7729 20.5068 25.8673C20.7351 25.9618 20.9165 26.1431 21.0111 26.3714L22.395 29.712C22.4537 29.8535 22.4765 30.0073 22.4615 30.1598C22.4466 30.3123 22.3942 30.4587 22.3091 30.5861C22.224 30.7134 22.1088 30.8179 21.9736 30.8901C21.8385 30.9623 21.6877 31 21.5345 31ZM0.931884 22.4654C0.716345 22.4655 0.507433 22.3909 0.340768 22.2542C0.174103 22.1176 0.0600032 21.9273 0.0179227 21.7159C-0.0241577 21.5045 0.00838812 21.2851 0.110008 21.095C0.211629 20.9049 0.376033 20.756 0.575191 20.6736L3.91582 19.2896C4.14405 19.195 4.40051 19.195 4.62879 19.2895C4.85706 19.3839 5.03845 19.5652 5.13305 19.7935C5.22765 20.0217 5.22772 20.2782 5.13323 20.5064C5.03874 20.7347 4.85744 20.9161 4.62921 21.0107L1.28858 22.3946C1.17547 22.4414 1.05427 22.4654 0.931884 22.4654ZM26.7275 11.7814C26.5119 11.7815 26.303 11.7069 26.1364 11.5702C25.9697 11.4335 25.8556 11.2433 25.8135 11.0319C25.7714 10.8205 25.804 10.601 25.9056 10.411C26.0072 10.2209 26.1716 10.0719 26.3708 9.98951L29.7114 8.60557C29.9374 8.52211 30.187 8.52938 30.4077 8.62586C30.6285 8.72235 30.8033 8.90055 30.8956 9.12312C30.9878 9.34569 30.9904 9.59532 30.9026 9.8197C30.8148 10.0441 30.6436 10.2257 30.4248 10.3266L27.0842 11.7106C26.9709 11.7569 26.8498 11.7809 26.7275 11.7814ZM20.1496 5.20348C19.9965 5.20336 19.8457 5.1655 19.7107 5.09323C19.5757 5.02096 19.4607 4.91652 19.3757 4.78915C19.2906 4.66179 19.2384 4.51543 19.2234 4.36303C19.2085 4.21064 19.2313 4.05692 19.29 3.91547L20.6739 0.574839C20.7685 0.346611 20.9499 0.16531 21.1782 0.0708211C21.4065 -0.0236676 21.6629 -0.0236042 21.8912 0.0709969C22.1194 0.165598 22.3007 0.346987 22.3952 0.575262C22.4897 0.803537 22.4896 1.06 22.395 1.28823L21.0111 4.62886C20.9405 4.79914 20.8209 4.94464 20.6676 5.04694C20.5142 5.14923 20.3339 5.20371 20.1496 5.20348ZM9.4646 31C9.31148 30.9999 9.16075 30.962 9.02575 30.8897C8.89075 30.8175 8.77566 30.713 8.69066 30.5857C8.60566 30.4583 8.55337 30.3119 8.53843 30.1596C8.52349 30.0072 8.54635 29.8534 8.605 29.712L9.98894 26.3714C10.0835 26.1431 10.2649 25.9618 10.4932 25.8673C10.7215 25.7729 10.9779 25.7729 11.2062 25.8675C11.4344 25.9621 11.6157 26.1435 11.7102 26.3718C11.8047 26.6001 11.8046 26.8565 11.71 27.0847L10.3261 30.4254C10.1771 30.783 9.83061 31 9.4646 31ZM4.27158 11.7814C4.14949 11.7815 4.02857 11.7574 3.91582 11.7106L0.575191 10.3266C0.346962 10.232 0.165661 10.0507 0.0711722 9.82238C-0.0233165 9.59411 -0.0232531 9.33765 0.0713481 9.10942C0.165949 8.88119 0.347338 8.69989 0.575613 8.6054C0.803888 8.51091 1.06035 8.51097 1.28858 8.60557L4.62921 9.98951C4.82844 10.072 4.99289 10.221 5.0945 10.4112C5.19612 10.6013 5.22859 10.8209 5.18639 11.0323C5.14419 11.2438 5.02992 11.434 4.86309 11.5706C4.69626 11.7072 4.4872 11.7817 4.27158 11.7814ZM30.0672 22.4654C29.9451 22.4655 29.8242 22.4415 29.7114 22.3946L26.3708 21.0107C26.2578 20.9639 26.1551 20.8952 26.0686 20.8087C25.9821 20.7222 25.9136 20.6195 25.8668 20.5064C25.82 20.3934 25.7959 20.2723 25.7959 20.1499C25.796 20.0276 25.8201 19.9065 25.8669 19.7935C25.9138 19.6805 25.9824 19.5778 26.069 19.4913C26.1555 19.4048 26.2582 19.3362 26.3712 19.2895C26.4842 19.2427 26.6054 19.2186 26.7277 19.2186C26.85 19.2187 26.9712 19.2428 27.0842 19.2896L30.4248 20.6736C30.624 20.756 30.7885 20.905 30.8901 21.0952C30.9917 21.2854 31.0242 21.5049 30.982 21.7164C30.9398 21.9278 30.8255 22.1181 30.6587 22.2547C30.4919 22.3913 30.2828 22.4658 30.0672 22.4654Z" fill="#FFAA45"/>
<path d="M15.5 25C20.7467 25 25 20.7467 25 15.5C25 10.2533 20.7467 6 15.5 6C10.2533 6 6 10.2533 6 15.5C6 20.7467 10.2533 25 15.5 25Z" fill="#FFAA45"/>
<path d="M15.4947 8.00001C16.979 7.99732 18.4305 8.43618 19.6646 9.26078C20.8987 10.0854 21.8596 11.2584 22.4251 12.6307C22.8046 13.5397 23 14.515 23 15.5C23 16.485 22.8046 17.4603 22.4251 18.3693C22.0506 19.2804 21.4992 20.1081 20.8026 20.8047C20.1061 21.5012 19.2783 22.0527 18.3672 22.4271C17.459 22.8052 16.485 22.9999 15.5012 23C14.0169 23.0029 12.5653 22.5642 11.3311 21.7395C10.097 20.9149 9.13608 19.7417 8.57078 18.3693C6.98877 14.5494 8.80877 10.1558 12.6287 8.57285C13.5369 8.19468 14.5109 7.99999 15.4947 8.00001Z" fill="#FFDA69"/>
</svg>
