<svg width="70" height="69" viewBox="0 0 70 69" fill="none" xmlns="http://www.w3.org/2000/svg">
<path fill-rule="evenodd" clip-rule="evenodd" d="M35.5776 19.0601C44.2093 19.0667 51.2006 26.0673 51.1939 34.6967C51.1872 43.326 44.1848 50.3154 35.5532 50.3088C26.9215 50.3021 19.9302 43.3016 19.9369 34.6722C19.9436 26.0428 26.946 19.0534 35.5776 19.0601Z" fill="#F9C900"/>
<path fill-rule="evenodd" clip-rule="evenodd" d="M31.8511 55.5247C31.8511 55.7117 31.8266 55.903 31.7754 56.0922L29.1823 65.7385C28.8685 66.9067 27.6666 67.601 26.498 67.2872C25.3295 66.9735 24.635 65.7719 24.9511 64.6014L27.5442 54.9551C27.858 53.7868 29.0599 53.0948 30.2285 53.4086C31.2078 53.6711 31.8511 54.5568 31.8511 55.5247Z" fill="#F9C900"/>
<path fill-rule="evenodd" clip-rule="evenodd" d="M20.9944 51.5643C20.9944 52.154 20.7563 52.7437 20.2888 53.1754L12.9415 59.9423C12.0511 60.7634 10.6645 60.7055 9.84536 59.8154C9.02404 58.9276 9.07968 57.5413 9.97001 56.7201L17.3174 49.951C18.2077 49.1322 19.5944 49.19 20.4135 50.0779C20.803 50.5007 20.9944 51.0325 20.9944 51.5643Z" fill="#F9C900"/>
<path fill-rule="evenodd" clip-rule="evenodd" d="M15.0564 40.9286C15.0564 41.9032 14.3998 42.7911 13.4137 43.047L3.74037 45.5459C2.56737 45.8485 1.37211 45.1454 1.0694 43.9727C0.766693 42.8022 1.47005 41.6073 2.64305 41.3046L12.3164 38.8035C13.4872 38.5009 14.6824 39.2063 14.9851 40.3767C15.0341 40.5614 15.0564 40.7461 15.0564 40.9286Z" fill="#F9C900"/>
<path fill-rule="evenodd" clip-rule="evenodd" d="M15.364 28.6558C15.364 28.8361 15.3417 29.0185 15.295 29.201C14.9923 30.3737 13.797 31.0791 12.6262 30.7765L2.95067 28.2864C1.77767 27.986 1.07209 26.7911 1.3748 25.6206C1.67528 24.448 2.87054 23.7426 4.04354 24.0452L13.7191 26.5352C14.7074 26.7889 15.364 27.679 15.364 28.6558Z" fill="#F9C900"/>
<path fill-rule="evenodd" clip-rule="evenodd" d="M20.9404 17.9891C20.9404 18.5365 20.7356 19.0861 20.3238 19.5112C19.4825 20.379 18.0936 20.4035 17.2255 19.5601L10.0473 12.613C9.1792 11.7719 9.15471 10.3833 9.99829 9.51548C10.8396 8.64542 12.2263 8.62317 13.0966 9.4643L20.2726 16.4137C20.7178 16.8431 20.9404 17.415 20.9404 17.9891Z" fill="#F9C900"/>
<path fill-rule="evenodd" clip-rule="evenodd" d="M31.1197 11.8985C31.1197 12.8776 30.4565 13.7699 29.4637 14.0191C28.2907 14.3151 27.0999 13.603 26.8039 12.4303L24.3622 2.74397C24.0662 1.56905 24.7784 0.380789 25.9514 0.0848352C27.1244 -0.211118 28.3152 0.50095 28.6113 1.67364L31.053 11.36C31.0975 11.5402 31.1197 11.7205 31.1197 11.8985Z" fill="#F9C900"/>
<path fill-rule="evenodd" clip-rule="evenodd" d="M45.7891 2.92634C45.7891 3.11104 45.7646 3.29795 45.7157 3.48265L43.176 13.1445C42.8689 14.3128 41.6714 15.0137 40.5006 14.7044C39.3298 14.3973 38.6309 13.1979 38.9381 12.0297L41.4777 2.37004C41.7849 1.19958 42.9846 0.500857 44.1554 0.807937C45.1392 1.06606 45.7891 1.95392 45.7891 2.92634Z" fill="#F9C900"/>
<path fill-rule="evenodd" clip-rule="evenodd" d="M61.678 11.267C61.678 11.8789 61.422 12.4864 60.9257 12.9181L53.3869 19.4758C52.4743 20.268 51.0898 20.1723 50.2952 19.26C49.5006 18.3476 49.5963 16.9635 50.5111 16.1691L58.0477 9.61366C58.9625 8.81926 60.3448 8.91494 61.1394 9.82728C61.5022 10.2434 61.678 10.7574 61.678 11.267Z" fill="#F9C900"/>
<path fill-rule="evenodd" clip-rule="evenodd" d="M69.4471 25.8865C69.4471 26.8478 68.8083 27.7289 67.8357 27.996L58.2001 30.6395C57.0338 30.9599 55.8274 30.2724 55.5069 29.1063C55.1864 27.9381 55.8742 26.7343 57.0405 26.4138L66.676 23.7703C67.8423 23.4521 69.0487 24.1374 69.3692 25.3035C69.4227 25.4993 69.4471 25.6951 69.4471 25.8865Z" fill="#F9C900"/>
<path fill-rule="evenodd" clip-rule="evenodd" d="M69.2815 42.9652C69.2815 43.1454 69.2592 43.3279 69.2125 43.5103C68.9098 44.683 67.7145 45.3884 66.5437 45.0858L56.8681 42.5958C55.6951 42.2954 54.9896 41.1004 55.2923 39.93C55.5928 38.7573 56.788 38.0519 57.961 38.3545L67.6366 40.8445C68.6249 41.0982 69.2815 41.9883 69.2815 42.9652Z" fill="#F9C900"/>
<path fill-rule="evenodd" clip-rule="evenodd" d="M61.099 58.0064C61.099 58.5738 60.8786 59.1435 60.4401 59.5707C59.5743 60.4163 58.1876 60.4007 57.3418 59.5351L50.3572 52.3944C49.5114 51.5288 49.5248 50.1425 50.3906 49.2969C51.2565 48.4513 52.6431 48.4669 53.4889 49.3303L60.4735 56.4732C60.892 56.9005 61.099 57.4523 61.099 58.0064Z" fill="#F9C900"/>
<path fill-rule="evenodd" clip-rule="evenodd" d="M46.0139 66.0848C46.0139 67.0506 45.3684 67.934 44.3913 68.1965C43.2228 68.5125 42.0208 67.8205 41.707 66.6522L39.1073 57.0082C38.7912 55.8399 39.4834 54.6361 40.652 54.3223C41.8205 54.0063 43.0224 54.6984 43.3385 55.8666L45.9383 65.5129C45.9894 65.7043 46.0139 65.8957 46.0139 66.0848Z" fill="#F9C900"/>
</svg>
