<svg width="100" height="67" viewBox="0 0 100 67" fill="none" xmlns="http://www.w3.org/2000/svg">
<g clip-path="url(#clip0_403_2780)">
<path fill-rule="evenodd" clip-rule="evenodd" d="M33.4941 18.3313C41.8558 18.3376 48.6281 25.077 48.6217 33.3849C48.6154 41.6928 41.8324 48.4216 33.4707 48.4152C25.109 48.4089 18.3366 41.6695 18.343 33.3616C18.3494 25.0537 25.1324 18.325 33.4941 18.3313Z" fill="#F9C900"/>
<path fill-rule="evenodd" clip-rule="evenodd" d="M29.8842 53.4353C29.8842 53.6171 29.8608 53.7989 29.8118 53.9828L27.2991 63.2695C26.9948 64.3941 25.831 65.06 24.6991 64.7577C23.565 64.4554 22.8948 63.2991 23.1991 62.1744L25.7118 52.8878C26.0161 51.7631 27.1799 51.0972 28.3118 51.3974C29.2608 51.6511 29.8842 52.5051 29.8842 53.4353Z" fill="#F9C900"/>
<path fill-rule="evenodd" clip-rule="evenodd" d="M19.3675 49.6228C19.3675 50.1915 19.1378 50.758 18.6824 51.1724L11.5654 57.6897C10.7037 58.4783 9.36117 58.4233 8.56755 57.5671C7.77181 56.711 7.82712 55.3771 8.68883 54.5864L15.8058 48.0712C16.6697 47.2827 18.0122 47.3355 18.8058 48.1938C19.1824 48.5976 19.3675 49.1112 19.3675 49.6228Z" fill="#F9C900"/>
<mask id="mask0_403_2780" style="mask-type:luminance" maskUnits="userSpaceOnUse" x="0" y="37" width="14" height="7">
<path fill-rule="evenodd" clip-rule="evenodd" d="M0 37.2717V43.8971H13.616V37.2717L0 37.2717L0 37.2717Z" fill="white"/>
</mask>
<g mask="url(#mask0_403_2780)">
<path fill-rule="evenodd" clip-rule="evenodd" d="M13.6158 39.3837C13.6158 40.3223 12.9797 41.1764 12.0244 41.4216L2.65414 43.8294C1.52009 44.1212 0.36052 43.4426 0.0669034 42.3158C-0.224586 41.1891 0.456265 40.037 1.59244 39.7452L10.9626 37.3395C12.0967 37.0478 13.2541 37.7243 13.5478 38.8531C13.5946 39.0307 13.6158 39.2083 13.6158 39.3837Z" fill="#F9C900"/>
</g>
<path fill-rule="evenodd" clip-rule="evenodd" d="M13.9137 27.5692C13.9137 27.7425 13.8925 27.918 13.8456 28.0955C13.5542 29.2223 12.3967 29.9009 11.2627 29.6112L1.8882 27.214C0.75416 26.9244 0.0711809 25.7723 0.36267 24.6455C0.65416 23.5188 1.81161 22.8402 2.94778 23.1298L12.3201 25.5271C13.2776 25.7723 13.9137 26.6284 13.9137 27.5692Z" fill="#F9C900"/>
<path fill-rule="evenodd" clip-rule="evenodd" d="M19.3153 17.3004C19.3153 17.8289 19.1174 18.3574 18.7174 18.7654C17.9025 19.6025 16.5578 19.6237 15.7153 18.814L8.76421 12.1233C7.92166 11.3137 7.90038 9.97975 8.71527 9.14262C9.53017 8.30549 10.8748 8.28435 11.7174 9.094L18.6685 15.7826C19.1004 16.1969 19.3153 16.7487 19.3153 17.3004Z" fill="#F9C900"/>
<path fill-rule="evenodd" clip-rule="evenodd" d="M29.1761 11.4368C29.1761 12.3797 28.5335 13.2379 27.5718 13.4789C26.4356 13.7643 25.2803 13.0794 24.9952 11.9484L22.6293 2.62368C22.3442 1.49271 23.0335 0.349048 24.1697 0.0636622C25.3059 -0.21961 26.4612 0.465317 26.7463 1.59418L29.1122 10.9189C29.1548 11.0922 29.1761 11.2656 29.1761 11.4368Z" fill="#F9C900"/>
<path fill-rule="evenodd" clip-rule="evenodd" d="M43.3852 2.79935C43.3852 2.97692 43.3618 3.15661 43.315 3.3363L40.8555 12.6357C40.5576 13.7624 39.3959 14.4346 38.2618 14.1387C37.1299 13.8427 36.4512 12.6885 36.7491 11.5639L39.2087 2.2624C39.5065 1.13777 40.6682 0.463412 41.8023 0.759367C42.7555 1.00882 43.3852 1.86286 43.3852 2.79935Z" fill="#F9C900"/>
<path fill-rule="evenodd" clip-rule="evenodd" d="M58.7764 10.8291C58.7764 11.4168 58.5296 12.0024 58.0466 12.4188L50.7445 18.7311C49.8615 19.4943 48.519 19.4013 47.7509 18.524C46.9807 17.6446 47.0743 16.3127 47.9594 15.5475L55.2615 9.23729C56.1445 8.47203 57.4849 8.56505 58.2552 9.44446C58.6062 9.844 58.7764 10.3387 58.7764 10.8291Z" fill="#F9C900"/>
<path fill-rule="evenodd" clip-rule="evenodd" d="M66.302 24.903C66.302 25.8289 65.6828 26.6766 64.7403 26.9345L55.4084 29.4776C54.2764 29.7863 53.1084 29.1267 52.7998 28.0021C52.4892 26.8774 53.153 25.719 54.285 25.4103L63.6169 22.8672C64.7488 22.5586 65.9147 23.2181 66.2254 24.3428C66.2764 24.5288 66.302 24.7169 66.302 24.903Z" fill="#F9C900"/>
<path fill-rule="evenodd" clip-rule="evenodd" d="M66.1415 41.3443C66.1415 41.5176 66.1202 41.6931 66.0734 41.8707C65.7819 42.9974 64.6245 43.676 63.4904 43.3864L54.116 40.9892C52.9819 40.6995 52.2968 39.5495 52.5904 38.4207C52.8819 37.2939 54.0394 36.6153 55.1755 36.905L64.5479 39.3022C65.5053 39.5474 66.1415 40.4036 66.1415 41.3443Z" fill="#F9C900"/>
<path fill-rule="evenodd" clip-rule="evenodd" d="M58.2156 55.8243C58.2156 56.3718 58.0029 56.9172 57.5773 57.3294C56.739 58.1454 55.3944 58.1306 54.5752 57.2977L47.8092 50.4209C46.9901 49.588 47.005 48.2541 47.8433 47.4403C48.6816 46.6243 50.0263 46.6391 50.8454 47.472L57.6114 54.3487C58.0156 54.7588 58.2156 55.2915 58.2156 55.8243Z" fill="#F9C900"/>
<path fill-rule="evenodd" clip-rule="evenodd" d="M43.6032 63.601C43.6032 64.5312 42.9798 65.381 42.033 65.6347C40.9011 65.9369 39.7351 65.271 39.4309 64.1464L36.9117 54.8619C36.6075 53.7372 37.2777 52.5809 38.4096 52.2765C39.5415 51.9742 40.7075 52.6401 41.0117 53.7647L43.5287 63.0493C43.5798 63.2332 43.6032 63.4192 43.6032 63.601Z" fill="#F9C900"/>
<path fill-rule="evenodd" clip-rule="evenodd" d="M18.1162 53.9192C18.1162 60.7093 23.6247 66.2373 30.3928 66.2373H83.7694C92.2673 66.2373 99.1779 59.2993 99.1779 50.7715C99.1779 42.2437 92.2673 35.3057 83.7694 35.3057C82.1886 35.3057 80.6162 35.5509 79.1013 36.0308L78.1141 36.3458L77.7651 35.3649C74.5034 26.1607 65.7843 19.9773 56.0715 19.9773C44.1971 19.9773 34.3417 28.9067 33.146 40.7471L33.0354 41.8442L31.946 41.7089C31.3417 41.6328 30.8481 41.599 30.3928 41.599C23.6247 41.599 18.1162 47.1249 18.1162 53.9192Z" fill="#EDF3F9"/>
</g>
<defs>
<clipPath id="clip0_403_2780">
<rect width="100" height="67" fill="white"/>
</clipPath>
</defs>
</svg>
