<svg width="100" height="81" viewBox="0 0 100 81" fill="none" xmlns="http://www.w3.org/2000/svg">
<g clip-path="url(#clip0_403_2969)">
<path fill-rule="evenodd" clip-rule="evenodd" d="M22.8703 51.8792C22.8703 51.8792 20.1431 59.1638 20.8249 61.9455C21.3868 64.2462 23.7521 65.6559 26.1027 65.0891C28.4575 64.5202 29.9011 62.1902 29.3371 59.8896C28.6574 57.1058 22.8703 51.8792 22.8703 51.8792Z" fill="#38A1E8"/>
<path fill-rule="evenodd" clip-rule="evenodd" d="M39.7304 51.5405C39.7304 51.5405 37.0032 58.8252 37.685 61.6069C38.2469 63.9076 40.6122 65.3172 42.9628 64.7504C45.3176 64.1815 46.7612 61.8516 46.1972 59.551C45.5175 56.7672 39.7304 51.5405 39.7304 51.5405Z" fill="#38A1E8"/>
<path fill-rule="evenodd" clip-rule="evenodd" d="M57.2497 51.189C57.2497 51.189 54.5225 58.4737 55.2043 61.2553C55.7661 63.556 58.1315 64.9657 60.4821 64.3989C62.8369 63.83 64.2805 61.5001 63.7165 59.1994C63.0368 56.4156 57.2497 51.189 57.2497 51.189Z" fill="#38A1E8"/>
<path fill-rule="evenodd" clip-rule="evenodd" d="M73.7534 50.3716C73.7534 50.3716 71.0261 57.6563 71.7079 60.438C72.2698 62.7386 74.6351 64.1483 76.9857 63.5815C79.3405 63.0126 80.7841 60.6827 80.2201 58.382C79.5404 55.5982 73.7534 50.3716 73.7534 50.3716Z" fill="#38A1E8"/>
<path fill-rule="evenodd" clip-rule="evenodd" d="M32.761 67.2583C32.761 67.2583 30.0337 74.543 30.7155 77.3247C31.2774 79.6253 33.6427 81.035 35.9933 80.4682C38.3481 79.8993 39.7917 77.5694 39.2277 75.2687C38.548 72.485 32.761 67.2583 32.761 67.2583Z" fill="#38A1E8"/>
<path fill-rule="evenodd" clip-rule="evenodd" d="M50.2802 66.9065C50.2802 66.9065 47.553 74.1912 48.2348 76.9729C48.7967 79.2735 51.162 80.6832 53.5126 80.1164C55.8674 79.5475 57.311 77.2176 56.747 74.9169C56.0673 72.1331 50.2802 66.9065 50.2802 66.9065Z" fill="#38A1E8"/>
<path fill-rule="evenodd" clip-rule="evenodd" d="M66.7839 66.0891C66.7839 66.0891 64.0566 73.3738 64.7385 76.1555C65.3003 78.4561 67.6656 79.8658 70.0162 79.299C72.371 78.7301 73.8146 76.4002 73.2507 74.0996C72.5709 71.3158 66.7839 66.0891 66.7839 66.0891Z" fill="#38A1E8"/>
<path fill-rule="evenodd" clip-rule="evenodd" d="M88.9602 24.0865C95.0208 24.0865 99.9513 29.0517 99.9513 35.1589C99.9513 41.2619 95.0208 46.2271 88.9602 46.2271H41.1719C33.5667 46.2271 27.3777 39.9924 27.3777 32.3291C27.3777 24.6659 33.5667 18.4311 41.1719 18.4311C42.5881 18.4311 43.996 18.6507 45.3512 19.0837L46.2371 19.366L46.5486 18.4855C49.4694 10.2136 57.2746 4.65649 65.9699 4.65649C76.6012 4.65649 85.4248 12.6795 86.496 23.321L86.5949 24.3061L87.5713 24.1848C88.11 24.1179 88.5519 24.0865 88.9602 24.0865Z" fill="#BAC6D1"/>
<path fill-rule="evenodd" clip-rule="evenodd" d="M12.142 22.0413C5.44799 22.0413 -0.000244141 27.5084 -0.000244141 34.2305C-0.000244141 40.9484 5.44799 46.4177 12.142 46.4177H64.9345C73.3394 46.4177 80.1744 39.5534 80.1744 31.1163C80.1744 22.6792 73.3394 15.8149 64.9345 15.8149C63.371 15.8149 61.8158 16.0575 60.3175 16.5323L59.3411 16.8439L58.996 15.8734C55.77 6.76705 47.1462 0.649414 37.5397 0.649414C25.7952 0.649414 16.0477 9.4839 14.8651 21.1984L14.7556 22.2839L13.6782 22.15C13.0806 22.0747 12.5923 22.0413 12.142 22.0413Z" fill="#D6E3F2"/>
</g>
<defs>
<clipPath id="clip0_403_2969">
<rect width="100" height="81" fill="white"/>
</clipPath>
</defs>
</svg>
