<svg width="40" height="51" viewBox="0 0 40 51" fill="none" xmlns="http://www.w3.org/2000/svg">
<path d="M20.0008 0C11.7564 0 5 6.75857 5 15.0075C5 18.2036 6.0175 21.1741 7.73937 23.6155L18.17 41.7073C19.6307 43.6221 20.6018 43.2584 21.8164 41.6062L33.3215 21.9628C33.5534 21.5409 33.7359 21.0917 33.8948 20.6328C34.6246 18.8478 35 16.9369 35 15.0075C35.0005 6.75857 28.2461 0 20.0008 0ZM20.0008 7.03174C24.4408 7.03174 27.9713 10.5658 27.9713 15.0075C27.9713 19.4491 24.4408 22.9822 20.0008 22.9822C15.5612 22.9822 12.0292 19.4501 12.0292 15.008C12.0292 10.5658 15.5617 7.03174 20.0008 7.03174Z" fill="#4A8DA3"/>
<path d="M29.4565 25L29.4325 25.0641L29.4535 25.0056L29.4565 25ZM12.003 35.2535C4.94 36.2693 0 38.6992 0 42.2762C0 47.0943 8.254 51 20 51C31.746 51 40 47.0943 40 42.2762C40 38.6992 35.0605 36.2693 27.998 35.2535L27.0195 36.9491C32.3425 37.7008 36 39.2804 36 41.1134C36 43.6832 28.8365 45.7661 20 45.7661C11.1635 45.7661 4 43.6832 4 41.1134C3.9995 39.2865 7.633 37.7084 12.9725 36.9537L12.003 35.2535Z" fill="#4A8DA3"/>
</svg>
