<svg width="54" height="54" viewBox="0 0 54 54" fill="none" xmlns="http://www.w3.org/2000/svg">
<g clip-path="url(#clip0_591_2540)">
<path d="M15.2343 48.6562V38.0247C14.1083 38.449 12.9104 38.6736 11.6406 38.6736C5.65098 38.6736 0.859311 33.6823 0.859311 27.4431C0.859311 24.2737 2.05723 21.4286 4.11765 19.3822C3.5666 18.0345 3.25514 16.5371 3.25514 14.9648C3.25514 8.72569 8.04681 3.73438 14.0364 3.73438C17.7739 3.73438 21.0801 5.7309 23.0208 8.72569H23.6197C25.3502 8.72569 27.0637 9.08073 28.6624 9.77053C30.2611 10.4603 31.7137 11.4714 32.9373 12.746C34.1609 14.0206 35.1316 15.5337 35.7938 17.1991C36.456 18.8644 36.7968 20.6493 36.7968 22.4518C36.7968 24.2544 36.456 26.0393 35.7938 27.7046C35.1316 29.3699 34.1609 30.8831 32.9373 32.1577C31.7137 33.4323 30.2611 34.4433 28.6624 35.1331C27.0637 35.8229 25.3502 36.178 23.6197 36.178C22.4218 36.178 21.2239 36.0033 20.026 35.6539V48.6562H15.2343Z" fill="#ADCC7C"/>
<path d="M31.9175 36.2227C31.4175 36.2227 31.0084 36.6405 31.0084 37.1512V40.8655C31.0084 41.3762 31.4175 41.7941 31.9175 41.7941H32.8265V43.6512H29.1902V45.5084H31.0084V49.2227H32.8265V45.5084H45.5538V49.2227H47.372V45.5084H49.1902V43.6512H45.5538V41.7941H46.4629C46.9629 41.7941 47.372 41.3762 47.372 40.8655V37.1512C47.372 36.6405 46.9629 36.2227 46.4629 36.2227H31.9175ZM43.7356 41.7941V43.6512H34.6447V41.7941H43.7356Z" fill="#ADCC7C"/>
<path d="M1.19019 49.2227L52.1902 49.2227" stroke="#ADCC7C" stroke-width="2" stroke-linecap="round" stroke-linejoin="round"/>
</g>
<defs>
<clipPath id="clip0_591_2540">
<rect width="53.9062" height="53.9062" rx="8" fill="white"/>
</clipPath>
</defs>
</svg>
